<svg xmlns="http://www.w3.org/2000/svg" viewBox="0 0 146.47 102.18"><defs><style>.cls-1{fill:#fff;}.cls-2{fill:#307c55;}.cls-3{fill:#e48438;}</style></defs><g id="Layer_2" data-name="Layer 2"><g id="Layer_1-2" data-name="Layer 1"><path class="cls-1" d="M23.61,65.33V38H12.84v5.23h3.54V50.4a8.15,8.15,0,0,0-6.54-3.09,8.79,8.79,0,0,0-7,3.41A12.56,12.56,0,0,0,0,59.1a12.84,12.84,0,0,0,2.79,8.34,8.69,8.69,0,0,0,7,3.44,9.17,9.17,0,0,0,6.56-3v2.7h11V65.33Zm-8.53-1.56a4.34,4.34,0,0,1-3.18,1.42,3.76,3.76,0,0,1-3.33-1.75,7.7,7.7,0,0,1-1.14-4.3A7.35,7.35,0,0,1,8.59,54.8a3.78,3.78,0,0,1,3.29-1.65,4.4,4.4,0,0,1,3.17,1.38c.93.92,1.4,2.46,1.4,4.64S16,62.82,15.08,63.77Z"/><path class="cls-1" d="M41.3,41.37a4,4,0,0,1-4,4,3.83,3.83,0,0,1-2.79-1.17,3.79,3.79,0,0,1-1.17-2.78,4,4,0,0,1,4-4,3.77,3.77,0,0,1,2.81,1.17A3.84,3.84,0,0,1,41.3,41.37Z"/><polygon class="cls-1" points="44.25 65.33 44.25 70.56 30.2 70.56 30.2 65.33 33.64 65.33 33.64 53.1 30.2 53.1 30.2 47.88 40.88 47.88 40.88 65.33 44.25 65.33"/><path class="cls-1" d="M63.37,47.87v2.79a8.11,8.11,0,0,0-6.54-3.14,8.93,8.93,0,0,0-7,3.27A12.33,12.33,0,0,0,47,59.19a12.61,12.61,0,0,0,2.78,8.4,8.5,8.5,0,0,0,6.71,3.29c2.24,0,4.53-1.06,6.89-3.16v1.73q0,3.58-1.65,4.83a6.63,6.63,0,0,1-4.07,1.24,10.37,10.37,0,0,1-5.5-1.69l-3.52,4.8Q52,81.09,58.75,81.09q11.86,0,11.86-11.23V53.1h3.75V47.87Zm-1.3,15.66a4.13,4.13,0,0,1-3.22,1.52,3.81,3.81,0,0,1-3.25-1.63,7,7,0,0,1-1.18-4.21A7.19,7.19,0,0,1,55.56,55a3.73,3.73,0,0,1,3.29-1.64A4,4,0,0,1,62.17,55a6.92,6.92,0,0,1,1.22,4.33A6.23,6.23,0,0,1,62.07,63.53Z"/><path class="cls-1" d="M103.89,41.37a3.95,3.95,0,0,1-6.75,2.78A3.79,3.79,0,0,1,96,41.37a3.84,3.84,0,0,1,1.16-2.8,3.95,3.95,0,0,1,5.61,0A3.84,3.84,0,0,1,103.89,41.37Z"/><polygon class="cls-1" points="106.84 65.33 106.84 70.56 92.78 70.56 92.78 65.33 96.23 65.33 96.23 53.1 92.78 53.1 92.78 47.88 103.47 47.88 103.47 65.33 106.84 65.33"/><path class="cls-1" d="M118.79,53.1v9.83a3.26,3.26,0,0,0,.34,1.8c.22.3.74.46,1.55.46a6.72,6.72,0,0,0,2.28-.47v5a14.21,14.21,0,0,1-5.46,1.15c-4,0-6-2-6-5.92V53.1h-2.88V47.88h2.88V44.32l7.24-5.21v8.77H123V53.1Z"/><polygon class="cls-2" points="137.85 37.98 137.85 47.69 134.58 61.09 131.05 61.09 127.43 47.69 127.43 37.98 129.33 46.84 130.35 34.72 130.9 37.98 132.11 50.81 132.46 38.52 133.28 33.9 134.1 55.01 134.74 35.84 136.53 39.77 136.73 43.91 137.85 37.98"/><path class="cls-3" d="M137.13,65.68a5.26,5.26,0,0,1-2,.33,16.46,16.46,0,0,0,2-.05,27.41,27.41,0,0,1-.49,2.76,11.32,11.32,0,0,1-3.85.82s2.17,0,3.72-.25c-.18.75-.32,1.26-.32,1.26h-6.74s-.26-1.22-.48-2.62c1.47,0,3.21,0,3.21,0a18.87,18.87,0,0,1-3.25-.28c-.13-.79-.24-1.62-.28-2.3,1.55.14,3.89.06,3.89.06a12.31,12.31,0,0,1-3.91-.57,2,2,0,0,1,.14-1c.55-.78,7.39-.86,8.2,0A2.91,2.91,0,0,1,137.13,65.68Z"/><path class="cls-1" d="M119.21,1,119,10.35,119,14.54s5.71,7.52,7.23,7.52a.3.3,0,0,0,.19,0c1.15-.8,1.33-2.28,2.15-2.28s16-.31,16-.31,3.6,37.13-3.3,52.77-19.64,28.06-26.61,29c-7-.92-19.71-13.34-26.61-29s-3.3-52.77-3.3-52.77,15.19.31,16,.31,1,1.48,2.15,2.28a.3.3,0,0,0,.19,0c1.52,0,7.23-7.52,7.23-7.52l-.08-4.19L110,1h1.2l.21,9.35,0,.91c0,.24,0,.46,0,.68l0,1.89V12.6l0-3.93,0-1.77V6.45l0-2.93,0-2.52h7.6m1-1H109l0,1,.18,9.35.07,3.84c-2.24,2.93-5,6.1-6.1,6.76a4.37,4.37,0,0,1-.61-.85,2.27,2.27,0,0,0-1.85-1.39c-.79,0-15.83-.31-16-.31l-.93,0-.09.92c-.14,1.53-3.54,37.57,3.39,53.27,7.16,16.24,20.18,28.62,27.39,29.57l.13,0,.13,0c7.22-1,20.24-13.33,27.4-29.57,6.92-15.7,3.52-51.74,3.38-53.27l-.09-.92-.93,0c-.15,0-15.17.31-16,.31a2.27,2.27,0,0,0-1.85,1.39,4.7,4.7,0,0,1-.61.85c-1.07-.66-3.86-3.83-6.1-6.76l.07-3.84L120.21,1l0-1Z"/><path class="cls-1" d="M135.63,78.85a51.37,51.37,0,0,1-18,18.84L128.9,86.3Z"/><polygon class="cls-1" points="144.1 19.85 141.52 20.62 133.68 20.15 144.1 19.85"/><polygon class="cls-1" points="100.55 20.18 97.94 20.84 90.13 20.08 100.55 20.18"/><polygon class="cls-1" points="111.61 1 111.58 3.52 111.55 6.45 111.55 6.9 111.53 8.67 111.5 12.6 111.49 13.83 111.43 11.26 111.41 10.35 111.21 1 111.61 1"/><path class="cls-1" d="M23.61,65.33V38H12.84v5.23h3.54V50.4a8.15,8.15,0,0,0-6.54-3.09,8.79,8.79,0,0,0-7,3.41A12.56,12.56,0,0,0,0,59.1a12.84,12.84,0,0,0,2.79,8.34,8.69,8.69,0,0,0,7,3.44,9.17,9.17,0,0,0,6.56-3v2.7h11V65.33Zm-8.53-1.56a4.34,4.34,0,0,1-3.18,1.42,3.76,3.76,0,0,1-3.33-1.75,7.7,7.7,0,0,1-1.14-4.3A7.35,7.35,0,0,1,8.59,54.8a3.78,3.78,0,0,1,3.29-1.65,4.4,4.4,0,0,1,3.17,1.38c.93.92,1.4,2.46,1.4,4.64S16,62.82,15.08,63.77Z"/><path class="cls-1" d="M41.3,41.37a4,4,0,0,1-4,4,3.83,3.83,0,0,1-2.79-1.17,3.79,3.79,0,0,1-1.17-2.78,4,4,0,0,1,4-4,3.77,3.77,0,0,1,2.81,1.17A3.84,3.84,0,0,1,41.3,41.37Z"/><polygon class="cls-1" points="44.25 65.33 44.25 70.56 30.2 70.56 30.2 65.33 33.64 65.33 33.64 53.1 30.2 53.1 30.2 47.88 40.88 47.88 40.88 65.33 44.25 65.33"/><path class="cls-1" d="M63.37,47.87v2.79a8.11,8.11,0,0,0-6.54-3.14,8.93,8.93,0,0,0-7,3.27A12.33,12.33,0,0,0,47,59.19a12.61,12.61,0,0,0,2.78,8.4,8.5,8.5,0,0,0,6.71,3.29c2.24,0,4.53-1.06,6.89-3.16v1.73q0,3.58-1.65,4.83a6.63,6.63,0,0,1-4.07,1.24,10.37,10.37,0,0,1-5.5-1.69l-3.52,4.8Q52,81.09,58.75,81.09q11.86,0,11.86-11.23V53.1h3.75V47.87Zm-1.3,15.66a4.13,4.13,0,0,1-3.22,1.52,3.81,3.81,0,0,1-3.25-1.63,7,7,0,0,1-1.18-4.21A7.19,7.19,0,0,1,55.56,55a3.73,3.73,0,0,1,3.29-1.64A4,4,0,0,1,62.17,55a6.92,6.92,0,0,1,1.22,4.33A6.23,6.23,0,0,1,62.07,63.53Z"/></g></g></svg>